<svg xmlns="http://www.w3.org/2000/svg" xmlns:xlink="http://www.w3.org/1999/xlink" viewBox="0 0 757 351">
  <g id="logo">
    <path d="M504,142c14.5-3.74,22.36-2.22,32-6,7.09-1.35,11.11-2.48,15.59-2.56C559,131.53,580,124,583,127c19.25-6.36,18.59-3.71,32-7,8.24-2,13.87-4,21-5,4.27-.6,9.51-1.91,12-2,10.87-2.63,31.4,3.13,32.26,8.92C679.2,123,664.55,127.74,664,129c-23.2,5.57-49,9.75-72,18-51.28,18.41-109.41,29.18-164,43-17.48,4.43-47.4,4.52-65-3-3.12-1.33-11.42-14.76-13-18-1.77-3.65-.78-5.5,0-9,3-13.38,1.11-4.52,9-24,9.21-10.2,11.61-12.17,20-20,9.06-8.46,9.19-7.76,22-17,5.55-4-7.79,16.16,4,43,2.61,2.44,3.81,2.42,17,9a52.16,52.16,0,0,0,13,2c23.38-.67,30.26-5.71,47-7C491.14,145.3,493.94,144.51,504,142Z" type="image/svg+xml"/>
  </g>
  <g id="back">
    <path d="M666,115c0-2-9,0-9-2-14.6.35-23.88-8.73-32-20,15.42-10,28.61-19.25,35-31,4.25-7.81,6.61-21.28,10-24a108,108,0,0,1,9,18c1.67,6.85,2.71,17.81,4,23,1.9,7.65,1.63,12.13,4,19,4,11.46,7,29.55,8,44h-2c-1.87-3.13-.7-2.05-4-7C682.67,125.5,681.42,115.38,666,115Z" type="image/svg+xml"/>
  </g>
  <g id="shadow_Image" data-name="shadow Image">
    <image id="shadow_Image-2" data-name="shadow Image" width="757" height="351" xlink:href="shoe1.png"/>
  </g>
  <g id="shadow_Image-3" data-name="shadow Image">
    <image id="shadow_Image-4" data-name="shadow Image" width="757" height="351" xlink:href="shoe2.png"/>
  </g>
  <g id="shadow_Image-5" data-name="shadow Image">
    <image id="shadow_Image-6" data-name="shadow Image" width="757" height="351" xlink:href="shoe3.png"/>
  </g>
  <g id="shadow_Image-7" data-name="shadow Image">
    <image id="shadow_Image-8" data-name="shadow Image" width="757" height="351" xlink:href="shoe4.png"/>
  </g>
</svg>
